<svg width="200" height="55" viewBox="0 0 200 55" fill="none" xmlns="http://www.w3.org/2000/svg">
<path d="M9.53344 23.8465C15.9329 15.9894 29.4144 0.723201 32.1448 2.51505V6.99466C35.4512 6.49693 42.1279 7.33597 42.3839 14.674L44.9437 16.7005C44.6237 18.6559 42.1066 23.4839 38.4376 25.4464C31.1562 30.1885 24.8921 44.8581 36.0912 46.138C42.8106 46.5646 49.395 37.3538 36.8378 24.8065C33.958 21.7514 24.0389 18.5137 18.4927 28.0062C16.3951 28.7172 12.2212 29.606 9.74679 30.0327C6.65373 30.566 8.43853 40.6601 19.7726 42.085L30.9716 52.8574" stroke="white" stroke-width="3.04544" stroke-linecap="round" stroke-linejoin="round"/>
<path d="M67.8452 43.3729C67.2362 43.3729 66.7692 43.2105 66.4443 42.8856C66.1195 42.5608 65.9571 42.0836 65.9571 41.4543V24.4303C65.9571 23.8009 66.1195 23.3237 66.4443 22.9989C66.7692 22.6741 67.226 22.5116 67.8148 22.5116C68.4239 22.5116 68.8908 22.6741 69.2157 22.9989C69.5405 23.3237 69.703 23.8009 69.703 24.4303V26.8057L69.368 25.8921C69.6725 24.8566 70.2917 24.0242 71.2257 23.3948C72.1799 22.7654 73.2864 22.4507 74.5452 22.4507C75.8446 22.4507 76.9816 22.7654 77.9561 23.3948C78.9509 24.0242 79.7225 24.9175 80.2706 26.0748C80.8188 27.2118 81.0929 28.5822 81.0929 30.1861C81.0929 31.7698 80.8188 33.1504 80.2706 34.3279C79.7225 35.4852 78.9611 36.3785 77.9866 37.0079C77.012 37.6373 75.8649 37.952 74.5452 37.952C73.3067 37.952 72.2205 37.6475 71.2866 37.0384C70.3527 36.409 69.7233 35.5969 69.3984 34.602H69.7639V41.4543C69.7639 42.0836 69.5913 42.5608 69.2461 42.8856C68.9213 43.2105 68.4543 43.3729 67.8452 43.3729ZM73.4793 35.0588C74.2305 35.0588 74.8904 34.8761 75.4588 34.5107C76.0273 34.1452 76.4638 33.6072 76.7684 32.8966C77.0932 32.1657 77.2557 31.2622 77.2557 30.1861C77.2557 28.5619 76.9105 27.3539 76.2202 26.5621C75.5299 25.7499 74.6163 25.3439 73.4793 25.3439C72.7281 25.3439 72.0683 25.5266 71.4998 25.8921C70.9313 26.2372 70.4846 26.7752 70.1598 27.5062C69.8552 28.2168 69.703 29.1101 69.703 30.1861C69.703 31.7901 70.0481 33.0082 70.7384 33.8407C71.4287 34.6528 72.3423 35.0588 73.4793 35.0588ZM91.5573 37.952C89.8722 37.952 88.4205 37.6373 87.2023 37.0079C85.9842 36.3785 85.0401 35.4852 84.3701 34.3279C83.7204 33.1707 83.3955 31.8002 83.3955 30.2166C83.3955 28.6736 83.7102 27.3234 84.3396 26.1662C84.9893 25.0089 85.8725 24.1054 86.9892 23.4557C88.1261 22.7857 89.4154 22.4507 90.8569 22.4507C91.9126 22.4507 92.8567 22.6233 93.6891 22.9684C94.5418 23.3136 95.2626 23.811 95.8514 24.4607C96.4605 25.1104 96.9173 25.9022 97.2218 26.8362C97.5467 27.7498 97.7091 28.7852 97.7091 29.9425C97.7091 30.308 97.5771 30.5922 97.3132 30.7952C97.0696 30.978 96.7143 31.0693 96.2473 31.0693H86.4714V28.8766H95.0291L94.5418 29.3334C94.5418 28.3995 94.3997 27.6178 94.1155 26.9884C93.8515 26.359 93.4556 25.8819 92.9278 25.5571C92.4202 25.2119 91.7806 25.0393 91.0091 25.0393C90.1564 25.0393 89.4255 25.2424 88.8164 25.6484C88.2276 26.0342 87.7708 26.5925 87.446 27.3234C87.1414 28.034 86.9892 28.8867 86.9892 29.8816V30.0948C86.9892 31.7596 87.3749 33.0082 88.1464 33.8407C88.9382 34.6528 90.0955 35.0588 91.6182 35.0588C92.1461 35.0588 92.7349 34.9979 93.3846 34.8761C94.0546 34.734 94.684 34.5005 95.2727 34.1757C95.6991 33.932 96.0747 33.8305 96.3996 33.8711C96.7244 33.8914 96.9782 34.0031 97.1609 34.2061C97.3639 34.4091 97.4858 34.6629 97.5264 34.9675C97.567 35.2517 97.5061 35.5461 97.3436 35.8507C97.2015 36.1552 96.9477 36.4191 96.5823 36.6425C95.8717 37.0891 95.0494 37.4241 94.1155 37.6475C93.2018 37.8505 92.3491 37.952 91.5573 37.952ZM107.486 37.952C106.166 37.952 105.06 37.7287 104.167 37.282C103.294 36.8353 102.644 36.1857 102.218 35.3329C101.791 34.4599 101.578 33.3838 101.578 32.1048V25.618H99.9944C99.5071 25.618 99.1315 25.4962 98.8676 25.2525C98.6036 24.9886 98.4716 24.6333 98.4716 24.1866C98.4716 23.7197 98.6036 23.3644 98.8676 23.1207C99.1315 22.8771 99.5071 22.7553 99.9944 22.7553H101.578V19.9839C101.578 19.3545 101.74 18.8774 102.065 18.5526C102.41 18.2277 102.888 18.0653 103.497 18.0653C104.106 18.0653 104.573 18.2277 104.898 18.5526C105.222 18.8774 105.385 19.3545 105.385 19.9839V22.7553H108.613C109.1 22.7553 109.476 22.8771 109.74 23.1207C110.004 23.3644 110.136 23.7197 110.136 24.1866C110.136 24.6333 110.004 24.9886 109.74 25.2525C109.476 25.4962 109.1 25.618 108.613 25.618H105.385V31.8916C105.385 32.8661 105.598 33.597 106.024 34.0843C106.451 34.5716 107.141 34.8152 108.095 34.8152C108.44 34.8152 108.745 34.7847 109.009 34.7238C109.273 34.6629 109.506 34.6223 109.709 34.602C109.953 34.5817 110.156 34.6629 110.318 34.8457C110.481 35.0081 110.562 35.3532 110.562 35.8811C110.562 36.2872 110.491 36.6526 110.349 36.9775C110.227 37.282 109.994 37.4952 109.648 37.617C109.384 37.6982 109.039 37.7693 108.613 37.8302C108.187 37.9114 107.811 37.952 107.486 37.952ZM114.302 37.8911C113.692 37.8911 113.225 37.7287 112.901 37.4038C112.576 37.0587 112.413 36.5714 112.413 35.942V24.4303C112.413 23.8009 112.576 23.3237 112.901 22.9989C113.225 22.6741 113.682 22.5116 114.271 22.5116C114.86 22.5116 115.317 22.6741 115.641 22.9989C115.966 23.3237 116.129 23.8009 116.129 24.4303V26.6534L115.794 25.7398C116.2 24.7247 116.829 23.9227 117.682 23.3339C118.535 22.7451 119.55 22.4507 120.727 22.4507C121.925 22.4507 122.91 22.735 123.681 23.3034C124.453 23.8719 124.991 24.745 125.296 25.9225H124.869C125.275 24.8465 125.945 24.0039 126.879 23.3948C127.813 22.7654 128.889 22.4507 130.107 22.4507C131.244 22.4507 132.178 22.6741 132.909 23.1207C133.66 23.5674 134.219 24.2475 134.584 25.1612C134.95 26.0545 135.132 27.1915 135.132 28.5721V35.942C135.132 36.5714 134.96 37.0587 134.615 37.4038C134.29 37.7287 133.823 37.8911 133.214 37.8911C132.605 37.8911 132.138 37.7287 131.813 37.4038C131.488 37.0587 131.326 36.5714 131.326 35.942V28.7243C131.326 27.5874 131.133 26.7549 130.747 26.2271C130.381 25.6992 129.752 25.4353 128.859 25.4353C127.864 25.4353 127.082 25.7906 126.514 26.5012C125.945 27.1915 125.661 28.1558 125.661 29.3943V35.942C125.661 36.5714 125.499 37.0587 125.174 37.4038C124.849 37.7287 124.382 37.8911 123.773 37.8911C123.164 37.8911 122.687 37.7287 122.341 37.4038C122.017 37.0587 121.854 36.5714 121.854 35.942V28.7243C121.854 27.5874 121.661 26.7549 121.276 26.2271C120.91 25.6992 120.291 25.4353 119.418 25.4353C118.423 25.4353 117.641 25.7906 117.073 26.5012C116.504 27.1915 116.22 28.1558 116.22 29.3943V35.942C116.22 37.2414 115.581 37.8911 114.302 37.8911ZM142.687 43.3729C142.24 43.3729 141.875 43.2511 141.591 43.0074C141.307 42.7841 141.134 42.4796 141.073 42.0938C141.032 41.708 141.104 41.302 141.286 40.8756L143.357 36.277V37.8606L137.814 25.0393C137.632 24.5927 137.571 24.1765 137.632 23.7907C137.693 23.405 137.875 23.1004 138.18 22.8771C138.505 22.6335 138.941 22.5116 139.489 22.5116C139.956 22.5116 140.332 22.6233 140.616 22.8466C140.9 23.0497 141.154 23.4456 141.378 24.0344L145.489 34.2975H144.575L148.778 24.0039C149.001 23.4354 149.265 23.0497 149.57 22.8466C149.874 22.6233 150.28 22.5116 150.788 22.5116C151.235 22.5116 151.59 22.6335 151.854 22.8771C152.118 23.1004 152.28 23.405 152.341 23.7907C152.402 24.1562 152.331 24.5622 152.128 25.0089L144.728 41.9111C144.464 42.4796 144.179 42.8653 143.875 43.0683C143.57 43.2714 143.174 43.3729 142.687 43.3729ZM156.829 43.3729C156.22 43.3729 155.753 43.2105 155.428 42.8856C155.103 42.5608 154.941 42.0836 154.941 41.4543V24.4303C154.941 23.8009 155.103 23.3237 155.428 22.9989C155.753 22.6741 156.21 22.5116 156.799 22.5116C157.408 22.5116 157.875 22.6741 158.2 22.9989C158.524 23.3237 158.687 23.8009 158.687 24.4303V26.8057L158.352 25.8921C158.656 24.8566 159.276 24.0242 160.21 23.3948C161.164 22.7654 162.27 22.4507 163.529 22.4507C164.828 22.4507 165.965 22.7654 166.94 23.3948C167.935 24.0242 168.706 24.9175 169.255 26.0748C169.803 27.2118 170.077 28.5822 170.077 30.1861C170.077 31.7698 169.803 33.1504 169.255 34.3279C168.706 35.4852 167.945 36.3785 166.97 37.0079C165.996 37.6373 164.849 37.952 163.529 37.952C162.291 37.952 161.204 37.6475 160.27 37.0384C159.337 36.409 158.707 35.5969 158.382 34.602H158.748V41.4543C158.748 42.0836 158.575 42.5608 158.23 42.8856C157.905 43.2105 157.438 43.3729 156.829 43.3729ZM162.463 35.0588C163.214 35.0588 163.874 34.8761 164.443 34.5107C165.011 34.1452 165.448 33.6072 165.752 32.8966C166.077 32.1657 166.24 31.2622 166.24 30.1861C166.24 28.5619 165.894 27.3539 165.204 26.5621C164.514 25.7499 163.6 25.3439 162.463 25.3439C161.712 25.3439 161.052 25.5266 160.484 25.8921C159.915 26.2372 159.469 26.7752 159.144 27.5062C158.839 28.2168 158.687 29.1101 158.687 30.1861C158.687 31.7901 159.032 33.0082 159.722 33.8407C160.413 34.6528 161.326 35.0588 162.463 35.0588ZM180.541 37.952C178.856 37.952 177.404 37.6373 176.186 37.0079C174.968 36.3785 174.024 35.4852 173.354 34.3279C172.704 33.1707 172.379 31.8002 172.379 30.2166C172.379 28.6736 172.694 27.3234 173.324 26.1662C173.973 25.0089 174.856 24.1054 175.973 23.4557C177.11 22.7857 178.399 22.4507 179.841 22.4507C180.897 22.4507 181.841 22.6233 182.673 22.9684C183.526 23.3136 184.246 23.811 184.835 24.4607C185.444 25.1104 185.901 25.9022 186.206 26.8362C186.531 27.7498 186.693 28.7852 186.693 29.9425C186.693 30.308 186.561 30.5922 186.297 30.7952C186.053 30.978 185.698 31.0693 185.231 31.0693H175.455V28.8766H184.013L183.526 29.3334C183.526 28.3995 183.384 27.6178 183.099 26.9884C182.835 26.359 182.44 25.8819 181.912 25.5571C181.404 25.2119 180.765 25.0393 179.993 25.0393C179.14 25.0393 178.409 25.2424 177.8 25.6484C177.212 26.0342 176.755 26.5925 176.43 27.3234C176.125 28.034 175.973 28.8867 175.973 29.8816V30.0948C175.973 31.7596 176.359 33.0082 177.13 33.8407C177.922 34.6528 179.079 35.0588 180.602 35.0588C181.13 35.0588 181.719 34.9979 182.368 34.8761C183.038 34.734 183.668 34.5005 184.257 34.1757C184.683 33.932 185.059 33.8305 185.383 33.8711C185.708 33.8914 185.962 34.0031 186.145 34.2061C186.348 34.4091 186.47 34.6629 186.51 34.9675C186.551 35.2517 186.49 35.5461 186.328 35.8507C186.185 36.1552 185.932 36.4191 185.566 36.6425C184.856 37.0891 184.033 37.4241 183.099 37.6475C182.186 37.8505 181.333 37.952 180.541 37.952ZM196.47 37.952C195.15 37.952 194.044 37.7287 193.151 37.282C192.277 36.8353 191.628 36.1857 191.201 35.3329C190.775 34.4599 190.562 33.3838 190.562 32.1048V25.618H188.978C188.491 25.618 188.115 25.4962 187.851 25.2525C187.588 24.9886 187.456 24.6333 187.456 24.1866C187.456 23.7197 187.588 23.3644 187.851 23.1207C188.115 22.8771 188.491 22.7553 188.978 22.7553H190.562V19.9839C190.562 19.3545 190.724 18.8774 191.049 18.5526C191.394 18.2277 191.871 18.0653 192.481 18.0653C193.09 18.0653 193.557 18.2277 193.881 18.5526C194.206 18.8774 194.369 19.3545 194.369 19.9839V22.7553H197.597C198.084 22.7553 198.46 22.8771 198.724 23.1207C198.988 23.3644 199.12 23.7197 199.12 24.1866C199.12 24.6333 198.988 24.9886 198.724 25.2525C198.46 25.4962 198.084 25.618 197.597 25.618H194.369V31.8916C194.369 32.8661 194.582 33.597 195.008 34.0843C195.435 34.5716 196.125 34.8152 197.079 34.8152C197.424 34.8152 197.729 34.7847 197.993 34.7238C198.257 34.6629 198.49 34.6223 198.693 34.602C198.937 34.5817 199.14 34.6629 199.302 34.8457C199.465 35.0081 199.546 35.3532 199.546 35.8811C199.546 36.2872 199.475 36.6526 199.333 36.9775C199.211 37.282 198.977 37.4952 198.632 37.617C198.368 37.6982 198.023 37.7693 197.597 37.8302C197.17 37.9114 196.795 37.952 196.47 37.952Z" fill="white"/>
</svg>
