<svg height="100%" stroke-miterlimit="10" style="fill-rule:nonzero;clip-rule:evenodd;stroke-linecap:round;stroke-linejoin:round;" version="1.1" viewBox="0 0 1080 1080" width="100%" xml:space="preserve" xmlns="http://www.w3.org/2000/svg" xmlns:vectornator="http://vectornator.io" xmlns:xlink="http://www.w3.org/1999/xlink">
    <path d="M267.565 6.096C105.932-19.0055-37.7825 152.934 44.2373 316.974L128.412 486.4C145.182 519.941 145.182 559.478 128.412 593.019L44.2373 762.481C-49.6689 950.257 151.969 1147.77 337.124 1050.88L337.124 1049.77L944.229 731.059C1098.03 650.117 1098.03 430.452 944.229 349.509L337.124 29.6893C313.926 17.4437 290.656 9.68706 267.565 6.096ZM215.926 102.624C239.986 98.3503 266.632 101.439 292.236 114.941L899.341 434.797C984.377 479.541 984.377 601.027 899.341 645.771L292.236 964.478C189.424 1018.27 77.8137 909.643 129.525 806.22L214.813 636.794C245.157 576.069 245.157 504.463 214.813 443.774L129.525 274.312C90.6338 196.53 143.782 115.372 215.926 102.624Z" fill="#ff9900" fill-rule="nonzero" opacity="1" stroke="#ff9900" stroke-linecap="butt" stroke-linejoin="miter" stroke-width="0.5" vectornator:layerName="Curve 1"/>
</svg>
