<svg width="80" height="43" viewBox="0 0 80 43" fill="none" xmlns="http://www.w3.org/2000/svg">
<path d="M74.2851 1.46454L79.5589 13.4358C80.0744 14.606 79.5453 15.9684 78.3751 16.4839L66.4038 21.7577C65.2336 22.2732 63.8712 21.7441 63.3557 20.5739C62.8402 19.4037 63.3693 18.0414 64.5395 17.5258L71.402 14.5026L67.9832 13.1749C57.69 9.17729 44.9332 7.79275 36.4796 13.7629C46.6185 15.6539 48.9111 23.9569 46.6775 29.7081C44.3693 35.6512 37.6564 38.6085 31.7133 36.3003C26.2811 34.1906 21.9408 27.794 26.123 19.1652C17.6322 22.0373 9.30556 30.1207 5.13384 40.8623C4.67172 42.0522 3.33308 42.6437 2.14102 42.1807C0.948951 41.7177 0.360438 40.3778 0.822567 39.1879C6.38318 24.8701 18.2308 14.9837 29.7724 13.5693C39.3144 2.58649 56.3314 3.68809 69.6576 8.86359L73.0764 10.1914L70.0532 3.32883C69.5377 2.15863 70.0668 0.796267 71.237 0.280752C72.4072 -0.234756 73.7696 0.294347 74.2851 1.46454ZM33.3877 31.9891C36.9531 33.3738 40.9815 31.5991 42.3662 28.0337C44.2189 23.2633 40.9876 17.7861 32.1376 18.0379C26.9621 25.1298 28.9299 30.2578 33.3877 31.9891Z" fill="#FF9900"/>
</svg>
