<svg xmlns="http://www.w3.org/2000/svg" width="20" height="20" viewBox="0 0 20 20" fill="none">
  <g clip-path="url(#clip0_1873_652)">
    <path d="M10.0007 0.833313C8.18766 0.833313 6.41538 1.37093 4.90793 2.37817C3.40048 3.38542 2.22556 4.81706 1.53176 6.49205C0.837956 8.16704 0.656426 10.0101 1.01012 11.7883C1.36382 13.5665 2.23686 15.1998 3.51884 16.4818C4.80082 17.7638 6.43417 18.6368 8.21233 18.9905C9.99049 19.3442 11.8336 19.1627 13.5086 18.4689C15.1836 17.7751 16.6152 16.6002 17.6225 15.0927C18.6297 13.5853 19.1673 11.813 19.1673 9.99998C19.1645 7.56971 18.1978 5.2398 16.4793 3.52133C14.7608 1.80287 12.4309 0.83618 10.0007 0.833313ZM13.5357 12.3575C13.6152 12.4344 13.6787 12.5263 13.7224 12.628C13.7661 12.7296 13.7891 12.839 13.79 12.9496C13.791 13.0603 13.7699 13.17 13.728 13.2724C13.6861 13.3749 13.6242 13.4679 13.546 13.5461C13.4677 13.6244 13.3747 13.6863 13.2723 13.7282C13.1699 13.7701 13.0601 13.7912 12.9495 13.7902C12.8388 13.7892 12.7295 13.7662 12.6278 13.7226C12.5261 13.6789 12.4342 13.6154 12.3573 13.5358L10.0007 11.1783L7.64399 13.5358C7.48682 13.6876 7.27632 13.7716 7.05782 13.7697C6.83932 13.7678 6.63031 13.6802 6.47581 13.5257C6.3213 13.3712 6.23366 13.1621 6.23176 12.9436C6.22986 12.7252 6.31386 12.5146 6.46565 12.3575L8.82232 9.99998L6.46565 7.64248C6.38606 7.56561 6.32258 7.47365 6.2789 7.37198C6.23523 7.27031 6.21224 7.16096 6.21128 7.05031C6.21032 6.93967 6.2314 6.82993 6.2733 6.72752C6.3152 6.6251 6.37708 6.53206 6.45533 6.45382C6.53357 6.37557 6.62661 6.3137 6.72903 6.2718C6.83144 6.22989 6.94117 6.20881 7.05182 6.20977C7.16247 6.21073 7.27182 6.23372 7.37349 6.2774C7.47516 6.32107 7.56712 6.38455 7.64399 6.46415L10.0007 8.82165L12.3573 6.46415C12.4342 6.38455 12.5261 6.32107 12.6278 6.2774C12.7295 6.23372 12.8388 6.21073 12.9495 6.20977C13.0601 6.20881 13.1699 6.22989 13.2723 6.2718C13.3747 6.3137 13.4677 6.37557 13.546 6.45382C13.6242 6.53206 13.6861 6.6251 13.728 6.72752C13.7699 6.82993 13.791 6.93967 13.79 7.05031C13.7891 7.16096 13.7661 7.27031 13.7224 7.37198C13.6787 7.47365 13.6152 7.56561 13.5357 7.64248L11.179 9.99998L13.5357 12.3575Z" fill="white"/>
  </g>
  <defs>
    <clipPath id="clip0_1873_652">
      <rect width="20" height="20" fill="white"/>
    </clipPath>
  </defs>
</svg>