<svg width="35" height="35" viewBox="0 0 35 35" fill="none" xmlns="http://www.w3.org/2000/svg">
<path d="M21.3491 14.4365C19.9197 14.4365 18.5757 15.0434 17.5034 16.1412C16.434 15.0321 15.1057 14.4365 13.6505 14.4365C11.1097 14.4365 8.86524 16.2796 8.19247 18.9183C7.83992 20.3005 7.7662 22.5006 9.41585 25.1314C10.8893 27.481 13.4201 29.6453 16.9378 31.5643C17.1127 31.6597 17.3056 31.7074 17.4989 31.7074C17.6918 31.7074 17.885 31.6597 18.0598 31.5645C21.5786 29.6455 24.1101 27.4812 25.5842 25.1316C27.2347 22.5008 27.1611 20.3008 26.8087 18.9186C26.1356 16.2796 23.8907 14.4365 21.3491 14.4365ZM17.4987 29.1942C9.80933 24.8004 10.1617 20.6773 10.4627 19.4972C10.8642 17.9225 12.2048 16.7796 13.6503 16.7796C14.75 16.7796 15.761 17.4487 16.4965 18.6638C16.7086 19.0144 17.0887 19.2285 17.4986 19.2287C17.9083 19.2287 18.2885 19.0147 18.5006 18.6643C19.2371 17.4489 20.2485 16.7796 21.3489 16.7796C22.7954 16.7796 24.1365 17.9225 24.538 19.4972C24.839 20.6771 25.1907 24.8001 17.4987 29.1942Z" fill="#FF9900"/>
<path d="M12.4459 12.4279C14.9645 12.4279 17.0136 10.379 17.0136 7.86056C17.0136 5.34179 14.9645 3.29272 12.4459 3.29272C9.92715 3.29272 7.87793 5.34195 7.87793 7.86056C7.87793 10.379 9.92715 12.4279 12.4459 12.4279ZM12.4459 5.63576C13.6727 5.63576 14.6706 6.6339 14.6706 7.86056C14.6706 9.08706 13.6726 10.0849 12.4459 10.0849C11.2191 10.0849 10.221 9.08706 10.221 7.86056C10.221 6.63374 11.2189 5.63576 12.4459 5.63576Z" fill="#FF9900"/>
<path d="M22.555 12.4279C25.0736 12.4279 27.1227 10.379 27.1227 7.86056C27.1227 5.34179 25.0736 3.29272 22.555 3.29272C20.0364 3.29272 17.9873 5.34195 17.9873 7.86056C17.9871 10.379 20.0362 12.4279 22.555 12.4279ZM22.555 5.63576C23.7816 5.63576 24.7796 6.6339 24.7796 7.86056C24.7796 9.08706 23.7816 10.0849 22.555 10.0849C21.3282 10.0849 20.3303 9.08706 20.3303 7.86056C20.3302 6.63374 21.3282 5.63576 22.555 5.63576Z" fill="#FF9900"/>
<path d="M4.22778 10.2188C1.89661 10.2188 0 12.1155 0 14.447C0 16.7782 1.89661 18.6746 4.22778 18.6746C6.55926 18.6746 8.45587 16.778 8.45587 14.447C8.45603 12.1155 6.55926 10.2188 4.22778 10.2188ZM4.22778 16.3316C3.18856 16.3316 2.34304 15.4862 2.34304 14.447C2.34304 13.4076 3.18856 12.5619 4.22778 12.5619C5.26715 12.5619 6.11283 13.4076 6.11283 14.447C6.11299 15.4862 5.26731 16.3316 4.22778 16.3316Z" fill="#FF9900"/>
<path d="M30.7717 10.2188C28.4404 10.2188 26.5439 12.1155 26.5439 14.4468C26.5439 16.778 28.4406 18.6745 30.7717 18.6745C33.1032 18.6745 34.9998 16.7779 34.9998 14.4468C34.9998 12.1155 33.1032 10.2188 30.7717 10.2188ZM30.7717 16.3316C29.7325 16.3316 28.887 15.4861 28.887 14.447C28.887 13.4076 29.7325 12.5619 30.7717 12.5619C31.8111 12.5619 32.6568 13.4076 32.6568 14.447C32.6568 15.4862 31.8111 16.3316 30.7717 16.3316Z" fill="#FF9900"/>
</svg>
