<svg xmlns="http://www.w3.org/2000/svg" width="18.396" height="18.396" viewBox="0 0 18.396 18.396"><defs><style>.a{fill:#fff;}</style></defs><path class="a" d="M13.319,0H5.077A5.082,5.082,0,0,0,0,5.077v8.243A5.082,5.082,0,0,0,5.077,18.4h8.243A5.082,5.082,0,0,0,18.4,13.319V5.077A5.082,5.082,0,0,0,13.319,0Zm3.445,13.319a3.448,3.448,0,0,1-3.445,3.444H5.077a3.448,3.448,0,0,1-3.444-3.444V5.077A3.448,3.448,0,0,1,5.077,1.632h8.243a3.448,3.448,0,0,1,3.445,3.444v8.243Z"/><path class="a" d="M45.708,40.97a4.74,4.74,0,1,0,4.74,4.74A4.746,4.746,0,0,0,45.708,40.97Zm0,7.848a3.108,3.108,0,1,1,3.108-3.108A3.111,3.111,0,0,1,45.708,48.818Z" transform="translate(-36.51 -36.512)"/><path class="a" d="M120.118,28.251a1.2,1.2,0,1,0,.847.35A1.2,1.2,0,0,0,120.118,28.251Z" transform="translate(-105.981 -25.177)"/></svg>