<svg width="20" height="20" viewBox="0 0 20 20" fill="none" xmlns="http://www.w3.org/2000/svg">
<path d="M18.8089 8.21627L2.6724 1.52056C1.99259 1.23845 1.22459 1.36256 0.668141 1.84427C0.111696 2.32607 -0.121038 3.06841 0.0608368 3.78158L1.49713 9.41408H8.52939C8.85299 9.41408 9.11537 9.67642 9.11537 10.0001C9.11537 10.3236 8.85302 10.586 8.52939 10.586H1.49713L0.0608368 16.2185C-0.121038 16.9317 0.111657 17.674 0.668141 18.1558C1.22572 18.6385 1.99381 18.7611 2.67244 18.4795L18.8089 11.7838C19.5436 11.479 20 10.7955 20 10.0001C20 9.20463 19.5436 8.52107 18.8089 8.21627Z" fill="white"/>
</svg>
